HIERARCHY
ROOT Hips
{
	OFFSET 0.000000 0.000000 0.000000
	CHANNELS 6 Xposition Yposition Zposition Xrotation Yrotation Zrotation
	JOINT LeftUpLeg_virtual
	{
		OFFSET 0.000000 0.000000 0.000000
		CHANNELS 3 Xrotation Yrotation Zrotation
		JOINT LeftUpLeg
		{
			OFFSET 13.026900 -6.336304 -1.092800
			CHANNELS 3 Xrotation Yrotation Zrotation
			JOINT LeftLeg
			{
				OFFSET 0.524474 -46.096886 9.782700
				CHANNELS 3 Xrotation Yrotation Zrotation
				JOINT LeftFoot
				{
					OFFSET -0.524474 -53.427422 -12.948200
					CHANNELS 3 Xrotation Yrotation Zrotation
					JOINT LeftToeBase
					{
						OFFSET 0.192200 -14.009700 16.364100
						CHANNELS 3 Xrotation Yrotation Zrotation
						JOINT LeftToe_End
						{
							OFFSET -1.784700 -0.561700 9.474800
							CHANNELS 3 Xrotation Yrotation Zrotation
							End Site
							{
								OFFSET 0 0 0
							}
						}
					}
				}
			}
		}
	}
	JOINT RightUpLeg_virtual
	{
		OFFSET 0.000000 0.000000 0.000000
		CHANNELS 3 Xrotation Yrotation Zrotation
		JOINT RightUpLeg
		{
			OFFSET -12.883000 -6.336304 -1.092800
			CHANNELS 3 Xrotation Yrotation Zrotation
			JOINT RightLeg
			{
				OFFSET -0.524587 -46.096825 9.782800
				CHANNELS 3 Xrotation Yrotation Zrotation
				JOINT RightFoot
				{
					OFFSET 0.524587 -53.427383 -12.948300
					CHANNELS 3 Xrotation Yrotation Zrotation
					JOINT RightToeBase
					{
						OFFSET -0.192200 -14.009700 16.364100
						CHANNELS 3 Xrotation Yrotation Zrotation
						JOINT RightToe_End
						{
							OFFSET 1.784700 -0.561700 9.474800
							CHANNELS 3 Xrotation Yrotation Zrotation
							End Site
							{
								OFFSET 0 0 0
							}
						}
					}
				}
			}
		}
	}
	JOINT Spine_virtual
	{
		OFFSET 0.000000 0.000000 0.000000
		CHANNELS 3 Xrotation Yrotation Zrotation
		JOINT Spine
		{
			OFFSET 0.072000 7.257294 -0.789700
			CHANNELS 3 Xrotation Yrotation Zrotation
			JOINT Spine1
			{
				OFFSET 0.000000 12.508769 -0.658067
				CHANNELS 3 Xrotation Yrotation Zrotation
				JOINT Spine1_split
				{
					OFFSET 0.000000 12.508769 -0.658067
					CHANNELS 3 Xrotation Yrotation Zrotation
					JOINT Spine2
					{
						OFFSET 0.000000 12.508769 -0.658067
						CHANNELS 3 Xrotation Yrotation Zrotation
						JOINT Neck_virtual
						{
							OFFSET 0.000000 0.000000 0.000000
							CHANNELS 3 Xrotation Yrotation Zrotation
							JOINT Neck
							{
								OFFSET 0.000000 14.033295 7.520400
								CHANNELS 3 Xrotation Yrotation Zrotation
								JOINT Head
								{
									OFFSET 0.000000 8.198502 5.703100
									CHANNELS 3 Xrotation Yrotation Zrotation
									JOINT HeadTop_End
									{
										OFFSET 0.000000 17.760803 13.332701
										CHANNELS 3 Xrotation Yrotation Zrotation
										End Site
										{
											OFFSET 0 0 0
										}
									}
								}
							}
						}
						JOINT LeftShoulder_virtual
						{
							OFFSET 0.000000 0.000000 0.000000
							CHANNELS 3 Xrotation Yrotation Zrotation
							JOINT LeftShoulder
							{
								OFFSET 6.292450 5.785301 -0.669000
								CHANNELS 3 Xrotation Yrotation Zrotation
								JOINT LeftShoulder_split
								{
									OFFSET 6.292450 5.785301 -0.669000
									CHANNELS 3 Xrotation Yrotation Zrotation
									JOINT LeftArm
									{
										OFFSET 13.907140 -6.093903 1.965100
										CHANNELS 3 Xrotation Yrotation Zrotation
										JOINT LeftForeArm
										{
											OFFSET 34.140198 0.000000 0.000000
											CHANNELS 3 Xrotation Yrotation Zrotation
											JOINT LeftHand
											{
												OFFSET 40.960209 0.000000 0.000000
												CHANNELS 3 Xrotation Yrotation Zrotation
												End Site
												{
													OFFSET 0 0 0
												}
											}
										}
									}
								}
							}
						}
						JOINT RightShoulder_virtual
						{
							OFFSET 0.000000 0.000000 0.000000
							CHANNELS 3 Xrotation Yrotation Zrotation
							JOINT RightShoulder
							{
								OFFSET -6.292450 5.785301 -0.669000
								CHANNELS 3 Xrotation Yrotation Zrotation
								JOINT RightShoulder_split
								{
									OFFSET -6.292450 5.785301 -0.669000
									CHANNELS 3 Xrotation Yrotation Zrotation
									JOINT RightArm
									{
										OFFSET -13.907140 -6.093903 1.965100
										CHANNELS 3 Xrotation Yrotation Zrotation
										JOINT RightForeArm
										{
											OFFSET -34.140198 0.000000 0.000000
											CHANNELS 3 Xrotation Yrotation Zrotation
											JOINT RightHand
											{
												OFFSET -40.960209 0.000000 0.000000
												CHANNELS 3 Xrotation Yrotation Zrotation
												End Site
												{
													OFFSET 0 0 0
												}
											}
										}
									}
								}
							}
						}
					}
				}
			}
		}
	}
}
MOTION
Frames: 9
Frame Time: 0.03333333
0.264949 110.022278 -0.384026 0.000000 0.000000 0.000000 7.280220 -17.111787 1.411562 -34.514517 6.147049 9.738613 26.729607 6.615213 1.466585 0.351925 -1.148252 -6.402366 1.602808 -1.435508 -0.615637 0.000000 0.000000 0.000000 8.211382 -18.353968 1.814122 -13.766242 -9.422307 -13.198893 23.390271 -3.855675 0.539443 -14.944514 -5.675766 12.433437 0.678095 1.378111 -0.088846 0.000000 0.000000 0.000000 7.953221 -13.920643 1.314046 24.877835 4.785215 -1.181153 2.606439 2.032013 -1.666090 0.562173 1.430601 0.415046 0.000000 0.000000 0.000000 3.758070 1.637430 -0.952100 -14.317221 1.903155 1.710616 -11.562563 10.095289 -2.117428 0.000000 0.000000 0.000000 3.595434 1.989730 -1.110448 6.949525 -21.161041 9.034792 -0.812633 -0.651733 0.864585 -31.566549 -10.763455 -84.806258 -0.299488 -44.580945 -3.101954 0.000000 0.000000 0.000000 4.028665 1.909016 -0.910097 12.131774 25.816356 -20.203280 -4.969486 1.603078 -1.187802 -43.130821 1.206690 85.917626 -0.628335 60.942875 7.624824 0.000000 0.000000 0.000000 
0.302650 110.026260 -0.450264 0.000000 0.000000 0.000000 7.276454 -17.414576 1.462496 -34.549556 6.034775 9.796442 26.877242 6.844410 1.391597 0.228689 -1.095013 -6.491072 1.696390 -1.432263 -0.627561 0.000000 0.000000 0.000000 8.191664 -18.520794 1.867393 -13.931355 -9.594000 -13.191606 23.391632 -3.782158 0.506433 -14.879239 -5.612375 12.232446 0.857035 1.358209 -0.040610 0.000000 0.000000 0.000000 7.887518 -14.220542 1.277883 24.890388 4.742433 -1.129302 2.586955 2.028202 -1.598403 0.533337 1.343903 0.401297 0.000000 0.000000 0.000000 3.786858 1.678890 -0.929632 -14.218518 2.154813 1.606710 -11.661053 10.560379 -2.579377 0.000000 0.000000 0.000000 3.505613 2.004180 -1.077248 6.930342 -20.879822 8.800341 -0.625352 -1.331698 0.992879 -32.072045 -10.929595 -84.592931 -0.687352 -44.763554 -3.366067 0.000000 0.000000 0.000000 4.004852 1.926505 -0.833697 12.019835 25.807953 -19.965116 -5.110281 1.307556 -1.077686 -43.019612 0.420702 86.073176 -1.352153 61.319738 8.214786 0.000000 0.000000 0.000000 
0.369008 109.969254 -0.611519 0.000000 0.000000 0.000000 7.204446 -18.142687 1.523395 -34.587477 5.953230 10.028255 27.188610 7.270126 1.284966 0.022541 -0.944141 -6.674858 1.795708 -1.419145 -0.653356 0.000000 0.000000 0.000000 8.072829 -19.122074 1.923757 -14.344010 -9.747109 -13.178475 23.510717 -3.434466 0.432516 -14.839037 -5.380384 12.045674 0.955835 1.372256 -0.079230 0.000000 0.000000 0.000000 7.750434 -14.971578 1.275100 24.871418 4.701438 -0.997972 2.573798 2.039697 -1.537770 0.515699 1.221468 0.413126 0.000000 0.000000 0.000000 3.835354 1.720781 -0.909964 -14.121293 2.867672 1.269311 -11.811022 11.631592 -3.353715 0.000000 0.000000 0.000000 3.431616 2.052934 -1.037989 6.812230 -20.607483 8.119933 -0.418666 -1.950980 0.913481 -32.258102 -11.787940 -83.397580 -0.646602 -45.147752 -3.295627 0.000000 0.000000 0.000000 4.014838 1.943125 -0.789410 11.696211 25.644475 -19.451617 -5.274706 1.142231 -0.956188 -43.371131 1.051702 85.728266 -1.931674 61.047650 8.559024 0.000000 0.000000 0.000000 
0.474559 109.869507 -0.868156 0.000000 0.000000 0.000000 7.051167 -19.131915 1.595154 -34.628830 5.939552 10.374460 27.573472 7.865209 1.147998 -0.183424 -0.739725 -6.927086 1.868108 -1.396581 -0.680117 0.000000 0.000000 0.000000 7.890410 -20.075642 2.001863 -14.962390 -9.893047 -13.178233 23.806358 -2.828492 0.331085 -14.779247 -5.003490 11.868559 0.974894 1.411104 -0.179644 0.000000 0.000000 0.000000 7.530722 -16.091473 1.319745 24.835319 4.657670 -0.818819 2.585686 2.062665 -1.487077 0.471868 1.048514 0.508940 0.000000 0.000000 0.000000 3.876241 1.759466 -0.881203 -14.040127 3.916227 0.733718 -11.940627 13.082351 -4.274370 0.000000 0.000000 0.000000 3.400472 2.115236 -1.007600 6.614057 -20.347496 7.044324 -0.239196 -2.341723 0.679058 -32.063920 -13.253695 -81.396430 -0.307328 -45.526260 -3.037660 0.000000 0.000000 0.000000 4.057661 1.964865 -0.775246 11.217342 25.369356 -18.749680 -5.435120 1.117229 -0.760954 -44.145401 3.082821 85.018985 -2.335542 60.228950 8.674432 0.000000 0.000000 0.000000 
0.604240 109.738510 -1.202126 0.000000 0.000000 0.000000 6.843893 -20.262130 1.692152 -34.630931 5.994514 10.774993 27.943649 8.588815 0.990939 -0.329288 -0.533221 -7.207922 1.914853 -1.366719 -0.695406 0.000000 0.000000 0.000000 7.661786 -21.260366 2.117397 -15.713598 -10.047174 -13.195613 24.235103 -2.019528 0.195769 -14.682694 -4.553025 11.641507 0.936768 1.460274 -0.310020 0.000000 0.000000 0.000000 7.259627 -17.450379 1.406355 24.807611 4.599256 -0.637782 2.631003 2.090586 -1.445928 0.588578 0.870663 0.594411 0.000000 0.000000 0.000000 3.893128 1.792142 -0.844555 -14.007922 5.153737 0.039698 -12.033928 14.495485 -5.119304 0.000000 0.000000 0.000000 3.398174 2.176084 -0.994311 6.353630 -20.106923 5.700534 -0.190815 -2.400907 0.511524 -31.472040 -15.243464 -78.800951 0.091252 -45.968485 -2.793902 0.000000 0.000000 0.000000 4.112359 1.995527 -0.785699 10.659582 25.045365 -17.969495 -5.537916 1.027394 -0.549468 -45.155077 6.159935 84.069165 -2.634414 59.071711 8.674107 0.000000 0.000000 0.000000 
0.721723 109.587418 -1.580265 0.000000 0.000000 0.000000 6.619565 -21.431858 1.826968 -34.563773 6.080701 11.174567 28.216486 9.382464 0.838219 -0.380768 -0.375134 -7.484363 1.942068 -1.330085 -0.692201 0.000000 0.000000 0.000000 7.423646 -22.507970 2.281046 -16.558919 -10.209301 -13.222891 24.766886 -1.091856 0.027879 -14.574106 -4.111144 11.282725 0.894211 1.509468 -0.441362 0.000000 0.000000 0.000000 6.970193 -18.886865 1.518261 24.802715 4.508575 -0.493407 2.692367 2.117539 -1.413038 0.638874 0.594961 0.605248 0.000000 0.000000 0.000000 3.884971 1.809272 -0.805726 -14.068514 6.375521 -0.749133 -12.141222 15.369978 -5.653520 0.000000 0.000000 0.000000 3.406503 2.218121 -1.004624 6.062252 -19.858007 4.252729 -0.144808 -2.127580 0.396917 -30.599203 -17.508333 -75.882275 0.351746 -46.630077 -2.738929 0.000000 0.000000 0.000000 4.168720 2.029825 -0.810695 10.093324 24.753417 -17.233956 -5.473519 0.897391 -0.272061 -46.153914 9.742696 82.945940 -2.854390 57.787662 8.683638 0.000000 0.000000 0.000000 
0.819210 109.445412 -1.972610 0.000000 0.000000 0.000000 6.401107 -22.634632 1.997137 -34.393899 6.150831 11.557635 28.339257 10.176246 0.722277 -0.314374 -0.301004 -7.776583 1.974548 -1.287844 -0.675667 0.000000 0.000000 0.000000 7.189630 -23.778312 2.481041 -17.454840 -10.368260 -13.239206 25.339495 -0.120919 -0.164164 -14.455822 -3.727484 10.731909 0.870208 1.556935 -0.548396 0.000000 0.000000 0.000000 6.653230 -20.345158 1.640837 24.820204 4.381249 -0.401796 2.743925 2.126657 -1.391017 0.612490 0.405998 0.577522 0.000000 0.000000 0.000000 3.867525 1.812481 -0.771299 -14.223658 7.407126 -1.564625 -12.404407 15.228600 -5.657592 0.000000 0.000000 0.000000 3.387472 2.238058 -1.041064 5.760883 -19.554482 2.808664 -0.028501 -1.769047 0.226515 -29.528636 -19.862687 -72.935075 0.441959 -47.570311 -2.941366 0.000000 0.000000 0.000000 4.184973 2.050176 -0.836486 9.580663 24.599404 -16.581597 -5.146665 0.829124 0.010825 -46.910870 13.288305 81.714409 -3.051539 56.528339 8.834316 0.000000 0.000000 0.000000 
0.912212 109.335564 -2.386162 0.000000 0.000000 0.000000 6.207385 -23.875660 2.178290 -34.105491 6.174819 11.946414 28.280656 10.938777 0.644412 -0.137460 -0.322575 -8.104309 2.031787 -1.244371 -0.645205 0.000000 0.000000 0.000000 6.969625 -24.992893 2.675451 -18.345579 -10.512824 -13.212369 25.904278 0.853736 -0.375818 -14.311758 -3.425513 10.005393 0.895815 1.602487 -0.621564 0.000000 0.000000 0.000000 6.345148 -21.732699 1.742317 24.844919 4.224334 -0.356864 2.764968 2.105961 -1.382720 0.484697 0.254735 0.609411 0.000000 0.000000 0.000000 3.851341 1.790984 -0.754244 -14.485822 8.091376 -2.395130 -12.948541 13.690728 -5.012041 0.000000 0.000000 0.000000 3.304254 2.228450 -1.097900 5.452642 -19.224174 1.465934 0.064589 -1.524971 0.107786 -28.168545 -22.184456 -70.140148 0.426364 -48.732082 -3.339780 0.000000 0.000000 0.000000 4.119474 2.038793 -0.853049 9.182996 24.689406 -16.045825 -4.678403 0.788054 0.239582 -47.289856 16.380708 80.311441 -3.282323 55.493217 9.246689 0.000000 0.000000 0.000000 
0.991671 109.279076 -2.840221 0.000000 0.000000 0.000000 6.037959 -25.143711 2.335479 -33.731333 6.160482 12.382726 28.053211 11.664667 0.590333 0.099521 -0.430784 -8.451530 2.082965 -1.202229 -0.605821 0.000000 0.000000 0.000000 6.765115 -26.126601 2.827117 -19.193730 -10.591804 -13.100380 26.470309 1.820447 -0.592887 -14.098780 -3.189224 9.158855 1.025987 1.648812 -0.666496 0.000000 0.000000 0.000000 6.054654 -23.012695 1.793327 24.852716 4.045524 -0.333105 2.747197 2.042932 -1.385904 0.292339 0.073856 0.631791 0.000000 0.000000 0.000000 3.842806 1.736664 -0.759481 -14.819868 8.322231 -3.244241 -13.779388 10.495736 -3.723023 0.000000 0.000000 0.000000 3.189949 2.182328 -1.167623 5.164038 -18.944163 0.308060 0.010198 -1.317897 0.017503 -26.579630 -24.371573 -67.583103 0.431755 -49.789975 -3.764773 0.000000 0.000000 0.000000 3.998415 1.986486 -0.864816 8.939282 25.087309 -15.675856 -4.198459 0.759007 0.382168 -47.318461 18.882719 78.660782 -3.562349 54.748505 9.951756 0.000000 0.000000 0.000000 
